<svg xmlns="http://www.w3.org/2000/svg" width="192" height="192" viewBox="0 0 192 192">
  <!-- 简洁可爱的小兔子头像 192x192 -->
  <defs>
    <linearGradient id="rabbitGradient192" x1="0%" y1="0%" x2="0%" y2="100%">
      <stop offset="0%" style="stop-color:#FFFFFF;stop-opacity:1" />
      <stop offset="100%" style="stop-color:#FFE4E1;stop-opacity:1" />
    </linearGradient>
  </defs>
  
  <!-- 背景圆 -->
  <circle cx="96" cy="96" r="90" fill="#B8D4F1"/>
  
  <!-- 左耳外部 -->
  <ellipse cx="68" cy="55" rx="20" ry="50" fill="url(#rabbitGradient192)" transform="rotate(-15 68 55)"/>
  <!-- 左耳内部 -->
  <ellipse cx="68" cy="60" rx="10" ry="35" fill="#FFD1DC" transform="rotate(-15 68 60)"/>
  
  <!-- 右耳外部 -->
  <ellipse cx="124" cy="55" rx="20" ry="50" fill="url(#rabbitGradient192)" transform="rotate(15 124 55)"/>
  <!-- 右耳内部 -->
  <ellipse cx="124" cy="60" rx="10" ry="35" fill="#FFD1DC" transform="rotate(15 124 60)"/>
  
  <!-- 头部 -->
  <circle cx="96" cy="110" r="58" fill="url(#rabbitGradient192)"/>
  
  <!-- 左眼 -->
  <circle cx="76" cy="100" r="10" fill="#000000"/>
  <circle cx="79" cy="97" r="4" fill="#FFFFFF"/>
  
  <!-- 右眼 -->
  <circle cx="116" cy="100" r="10" fill="#000000"/>
  <circle cx="119" cy="97" r="4" fill="#FFFFFF"/>
  
  <!-- 鼻子 - Y字形 -->
  <ellipse cx="96" cy="120" rx="4" ry="6" fill="#FF69B4"/>
  
  <!-- 嘴巴 - 简单的W形 -->
  <path d="M 96 122 L 88 128 L 82 126" stroke="#FF69B4" stroke-width="2.5" fill="none" stroke-linecap="round" stroke-linejoin="round"/>
  <path d="M 96 122 L 104 128 L 110 126" stroke="#FF69B4" stroke-width="2.5" fill="none" stroke-linecap="round" stroke-linejoin="round"/>
  
  <!-- 腮红 -->
  <circle cx="60" cy="112" r="10" fill="#FFB6C1" opacity="0.4"/>
  <circle cx="132" cy="112" r="10" fill="#FFB6C1" opacity="0.4"/>
  
  <!-- 胡须 - 左侧 -->
  <line x1="45" y1="108" x2="65" y2="106" stroke="#999999" stroke-width="1.5" stroke-linecap="round"/>
  <line x1="45" y1="115" x2="65" y2="115" stroke="#999999" stroke-width="1.5" stroke-linecap="round"/>
  <line x1="45" y1="122" x2="65" y2="124" stroke="#999999" stroke-width="1.5" stroke-linecap="round"/>
  
  <!-- 胡须 - 右侧 -->
  <line x1="147" y1="108" x2="127" y2="106" stroke="#999999" stroke-width="1.5" stroke-linecap="round"/>
  <line x1="147" y1="115" x2="127" y2="115" stroke="#999999" stroke-width="1.5" stroke-linecap="round"/>
  <line x1="147" y1="122" x2="127" y2="124" stroke="#999999" stroke-width="1.5" stroke-linecap="round"/>
</svg>
